<?xml version="1.0" standalone="no"?>
<!DOCTYPE svg PUBLIC "-//W3C//DTD SVG 20010904//EN"
 "http://www.w3.org/TR/2001/REC-SVG-20010904/DTD/svg10.dtd">
<svg version="1.0" xmlns="http://www.w3.org/2000/svg"
 width="1280.000000pt" height="213.000000pt" viewBox="0 0 1280.000000 213.000000"
 preserveAspectRatio="xMidYMid meet">

<g transform="translate(0.000000,213.000000) scale(0.100000,-0.100000)"
fill="#000000" stroke="none">
<path d="M1990 1882 c-12 -16 -35 -32 -50 -35 -21 -5 -31 -16 -44 -47 -21 -52
-21 -129 -1 -136 9 -4 15 -19 15 -36 0 -46 27 -87 57 -88 16 0 69 111 88 185
8 32 15 81 15 107 0 51 11 59 45 35 39 -29 0 -239 -57 -313 -14 -18 -17 -25
-7 -23 8 3 26 29 42 59 15 30 31 56 35 59 4 4 8 17 10 30 3 30 7 35 21 26 8
-4 7 -15 -3 -33 -13 -24 -12 -30 5 -51 40 -49 18 -145 -54 -236 l-27 -34 -42
24 c-24 14 -53 25 -65 25 -16 0 -27 10 -37 33 -22 53 -60 77 -122 77 -38 0
-67 7 -101 26 -42 22 -57 25 -115 21 -47 -3 -79 -12 -110 -29 -41 -24 -45 -24
-78 -10 -28 11 -44 12 -76 4 -35 -10 -47 -8 -80 8 -21 11 -49 20 -61 20 -30 0
-92 -26 -118 -49 -11 -10 -39 -23 -63 -30 -55 -16 -98 -56 -115 -106 -10 -34
-17 -40 -39 -40 -20 1 -24 -2 -17 -11 7 -8 6 -15 -1 -19 -7 -4 -28 8 -48 26
-34 32 -29 18 11 -27 14 -16 17 -30 12 -55 -6 -30 -13 -37 -58 -54 -41 -16
-56 -28 -70 -57 -25 -51 -15 -88 24 -88 22 0 32 6 39 24 14 39 30 41 30 4 0
-52 18 -102 50 -143 17 -21 30 -50 30 -64 0 -52 64 -121 114 -121 8 0 33 -18
56 -40 41 -39 44 -40 112 -40 l70 0 -5 -147 c-3 -82 -11 -165 -18 -186 -9 -27
-10 -40 -1 -49 6 -6 54 -13 106 -16 82 -4 96 -2 102 12 9 24 -21 63 -65 85
-47 25 -61 68 -61 195 l0 86 65 0 c63 0 108 14 145 45 8 7 38 15 66 19 41 5
54 3 65 -10 8 -10 33 -26 57 -36 l42 -19 0 -107 c-1 -59 -6 -127 -11 -152 -6
-25 -11 -58 -12 -75 l-2 -30 87 -9 c99 -10 118 -6 118 27 0 26 -19 46 -66 70
-42 22 -54 60 -54 174 l0 94 38 16 c24 11 68 17 127 17 105 1 142 20 171 85
12 28 25 41 45 45 38 7 96 61 108 99 17 56 22 170 11 224 -15 70 -42 101 -91
109 -43 7 -69 26 -69 51 0 8 20 42 45 75 25 33 65 102 90 154 42 90 53 103 69
87 6 -7 23 -11 61 -16 23 -2 49 42 39 68 -4 9 -18 21 -31 26 -19 7 -23 14 -18
32 10 33 49 87 60 84 16 -6 11 -147 -8 -208 -17 -57 -56 -124 -72 -124 -4 0
-14 16 -21 35 -11 32 -13 33 -13 9 -1 -29 22 -54 59 -63 14 -3 19 -3 12 0 -9
4 -7 12 8 31 30 38 71 179 73 251 1 34 3 62 4 62 1 0 13 -4 27 -10 23 -9 26
-15 26 -63 0 -103 -54 -252 -100 -274 -24 -12 -24 -13 -3 -13 15 0 31 12 45
34 12 18 34 38 49 43 22 8 31 22 43 64 20 65 20 105 3 116 -8 4 -17 26 -20 47
-8 53 -26 68 -85 74 -44 4 -51 2 -71 -24 -12 -16 -25 -41 -28 -56 -7 -33 -15
-40 -37 -32 -9 4 -16 18 -16 33 0 41 -14 49 -68 40 -25 -5 -51 -14 -56 -19 -6
-6 -16 -10 -24 -10 -11 0 -13 10 -9 42 12 88 -10 121 -89 134 -38 6 -44 4 -64
-24z m56 -8 c10 -39 -3 -125 -30 -198 -42 -116 -78 -148 -84 -75 -2 29 1 37
21 46 42 20 76 160 46 190 -9 9 -8 18 5 37 21 33 34 33 42 0z m-119 -138 c-19
-55 -41 -61 -31 -10 3 22 14 55 22 74 l16 35 3 -30 c2 -16 -2 -48 -10 -69z
m66 80 c6 -16 -6 -74 -23 -117 -8 -18 -20 -29 -31 -29 -18 0 -18 2 -5 28 8 16
18 52 22 80 6 50 25 69 37 38z m244 -98 c-3 -8 -6 -5 -6 6 -1 11 2 17 5 13 3
-3 4 -12 1 -19z m53 2 c0 -11 -4 -20 -10 -20 -5 0 -10 9 -10 20 0 11 5 20 10
20 6 0 10 -9 10 -20z m25 -53 c69 -19 80 -25 77 -42 -6 -33 -14 -34 -90 -11
-59 17 -77 26 -88 49 -13 25 -13 27 3 26 10 0 54 -10 98 -22z m-111 -31 c5
-27 10 -33 25 -29 11 3 27 1 35 -4 13 -7 14 -12 4 -26 -10 -13 -20 -15 -43 -9
-23 6 -33 17 -43 47 -13 39 -9 71 7 61 5 -3 12 -21 15 -40z m350 -24 c-9 -48
-32 -102 -43 -102 -5 0 -3 21 4 48 7 26 16 60 19 75 10 42 28 22 20 -21z
m-309 -73 c4 -6 5 -13 1 -16 -8 -8 -56 6 -56 17 0 13 47 13 55 -1z m-545 -20
c41 -19 43 -21 25 -32 -11 -6 -40 -10 -64 -8 -32 2 -42 -1 -39 -10 3 -8 13
-14 24 -15 49 -2 58 -6 85 -35 36 -39 58 -29 28 12 -12 17 -20 32 -18 33 17
14 53 26 79 26 58 0 94 -29 114 -92 3 -11 15 -18 31 -18 52 0 118 -51 130
-101 l6 -26 -133 -5 c-144 -6 -213 -25 -240 -67 -16 -26 -25 -26 -33 0 -4 11
-19 35 -34 52 -16 18 -31 50 -34 71 -8 48 -49 93 -97 106 -27 7 -40 18 -52 46
l-16 36 51 24 c64 29 127 31 187 3z m-440 -14 c16 -15 24 -15 55 -5 43 14 96
6 118 -18 8 -9 19 -33 24 -52 8 -30 14 -36 51 -43 50 -10 92 -55 92 -99 0 -21
11 -43 35 -69 19 -22 35 -46 35 -54 0 -26 -37 -16 -72 19 -46 46 -98 58 -248
60 -152 1 -211 -8 -247 -38 -25 -21 -34 -22 -83 -15 -30 4 -85 8 -122 8 -45 1
-68 5 -68 13 0 13 48 98 56 98 3 0 19 -13 36 -30 22 -22 39 -30 66 -30 69 0
127 57 108 107 -8 21 -23 6 -28 -27 -2 -17 -14 -31 -40 -43 -34 -16 -39 -17
-66 -3 -97 50 -5 195 109 172 21 -4 29 -2 29 8 0 8 -6 16 -12 19 -7 3 7 14 32
26 51 25 110 23 140 -4z m955 -5 c11 -19 -85 -180 -107 -180 -17 0 -6 27 33
85 22 33 42 70 45 83 6 23 19 29 29 12z m-27 -292 c50 -15 66 -60 67 -183 0
-81 -4 -107 -21 -139 -33 -64 -67 -76 -219 -76 -116 0 -136 3 -175 23 -53 26
-97 92 -115 169 -10 47 -15 53 -39 56 -57 7 -73 -4 -79 -53 -13 -91 -78 -173
-154 -194 -65 -18 -252 -14 -292 7 -67 34 -76 58 -76 202 0 122 1 130 24 154
34 36 111 49 261 44 141 -6 185 -19 219 -67 20 -28 28 -31 72 -31 44 0 54 4
82 34 18 19 43 39 56 46 52 27 310 32 389 8z m-1230 -39 c53 -6 99 -13 101
-15 12 -12 -17 -13 -124 -4 -140 11 -158 5 -193 -58 -24 -43 -39 -52 -48 -28
-10 27 24 86 58 101 40 17 80 18 206 4z m58 -55 l31 -4 5 -108 c5 -116 18
-155 64 -191 43 -34 100 -44 219 -39 185 8 248 52 295 208 12 43 21 56 38 58
12 2 24 -3 26 -10 2 -7 9 -35 15 -62 17 -69 64 -131 125 -161 44 -22 63 -25
153 -25 111 0 118 -4 87 -49 -20 -29 -89 -61 -129 -60 -16 0 -43 6 -60 13 -26
11 -34 10 -60 -6 -34 -20 -114 -24 -148 -7 -12 6 -34 23 -49 36 -24 23 -30 24
-59 14 -18 -6 -45 -11 -61 -11 -16 0 -45 -12 -64 -27 -49 -37 -118 -42 -177
-14 -36 17 -50 19 -71 11 -60 -23 -140 1 -165 48 -6 11 -26 23 -45 26 -50 9
-94 50 -106 98 -6 22 -9 42 -6 45 3 4 -10 23 -29 45 -29 32 -35 46 -35 84 0
25 7 59 16 75 l15 30 72 -6 c40 -3 86 -8 103 -11z m242 -582 c2 -95 0 -112
-13 -112 -13 0 -15 18 -15 116 0 88 3 115 13 112 8 -3 13 -38 15 -116z m502
-7 c0 -87 -3 -105 -15 -105 -12 0 -15 18 -15 105 0 87 3 105 15 105 12 0 15
-18 15 -105z m-480 -135 c0 -5 -13 -10 -30 -10 -16 0 -30 5 -30 10 0 6 14 10
30 10 17 0 30 -4 30 -10z m490 0 c0 -5 -11 -10 -25 -10 -14 0 -25 5 -25 10 0
6 11 10 25 10 14 0 25 -4 25 -10z m-480 -45 c0 -18 16 -20 23 -2 4 8 6 7 6 -3
2 -34 -15 -42 -68 -35 -56 8 -56 8 -41 36 13 24 80 28 80 4z m500 -1 c0 -14 2
-15 17 -3 15 12 16 12 10 -4 -4 -10 -7 -23 -7 -29 0 -10 -98 -3 -108 7 -2 2 1
13 8 24 14 27 80 31 80 5z m-420 -35 c0 -5 -9 -9 -20 -9 -22 0 -23 1 -14 24 5
13 9 14 20 5 8 -6 14 -15 14 -20z m500 0 c0 -5 -9 -9 -20 -9 -19 0 -27 20 -13
33 7 8 33 -11 33 -24z m-607 -26 c-7 -2 -19 -2 -25 0 -7 3 -2 5 12 5 14 0 19
-2 13 -5z m500 0 c-7 -2 -19 -2 -25 0 -7 3 -2 5 12 5 14 0 19 -2 13 -5z"/>
<path d="M1795 1318 c-22 -12 -45 -37 -45 -50 0 -14 19 -9 40 12 24 24 87 27
116 5 24 -19 34 -19 34 0 0 35 -100 58 -145 33z"/>
<path d="M1206 1389 c-14 -11 -26 -25 -26 -30 0 -14 26 -11 40 6 18 22 83 19
105 -5 19 -21 45 -27 45 -11 0 5 -14 21 -31 35 -39 33 -95 35 -133 5z"/>
<path d="M1880 1171 c-81 -13 -110 -46 -110 -125 0 -52 44 -142 83 -170 24
-18 47 -22 145 -24 187 -6 207 11 207 175 0 93 -2 104 -23 125 -21 21 -32 23
-140 25 -64 1 -137 -2 -162 -6z m275 -35 c16 -11 20 -30 23 -91 5 -97 -10
-153 -43 -161 -13 -3 -75 -4 -138 -2 -98 3 -118 6 -137 23 -60 54 -81 172 -37
213 26 24 53 28 203 30 81 2 115 -2 129 -12z"/>
<path d="M1980 1052 c-39 -21 -52 -58 -24 -69 9 -3 25 -1 35 5 23 15 66 16 74
2 3 -5 17 -10 31 -10 19 0 24 5 24 25 0 50 -83 78 -140 47z"/>
<path d="M1173 1160 c-35 -14 -43 -42 -43 -145 0 -100 13 -146 45 -159 9 -3
71 -6 138 -6 150 0 179 12 220 90 20 39 27 67 27 109 0 69 -17 96 -68 111 -45
12 -288 12 -319 0z m245 -19 c93 -9 116 -29 115 -100 -1 -59 -36 -130 -73
-148 -14 -6 -80 -13 -147 -15 -159 -4 -158 -4 -158 132 0 64 4 103 12 111 25
25 123 33 251 20z"/>
<path d="M1305 1056 c-39 -17 -57 -39 -49 -60 7 -19 17 -20 60 -4 26 9 38 9
57 -1 55 -29 86 14 37 50 -35 26 -70 31 -105 15z"/>
<path d="M916 1014 c-17 -44 17 -104 60 -104 32 0 30 11 -6 32 -24 14 -30 24
-30 53 0 36 -13 47 -24 19z"/>
<path d="M1613 843 c-8 -21 18 -67 41 -71 32 -7 62 7 75 34 10 23 9 30 -3 42
-14 14 -16 13 -25 -11 -12 -31 -41 -36 -48 -8 -7 26 -32 35 -40 14z"/>
<path d="M900 1870 c0 -6 4 -10 10 -10 17 0 33 -41 21 -53 -32 -32 12 -187 53
-187 65 0 85 68 44 150 -18 35 -29 46 -51 48 -18 2 -32 12 -39 27 -11 25 -38
42 -38 25z m125 -132 c17 -59 19 -78 6 -78 -13 0 -41 76 -41 111 0 43 17 27
35 -33z m-55 20 c0 -18 9 -52 20 -76 18 -40 18 -43 2 -40 -22 4 -44 50 -50
105 -4 35 -2 43 12 43 11 0 16 -9 16 -32z"/>
<path d="M863 1855 c-3 -9 -2 -35 2 -58 3 -23 7 -51 7 -62 1 -38 30 -130 55
-172 l25 -43 -24 -9 c-16 -7 -18 -10 -6 -10 21 -1 70 20 80 34 4 5 7 19 7 30
-1 16 -2 15 -8 -5 -11 -40 -33 -29 -63 30 -38 74 -61 173 -56 232 5 46 -6 65
-19 33z"/>
<path d="M791 1724 c0 -11 3 -14 6 -6 3 7 2 16 -1 19 -3 4 -6 -2 -5 -13z"/>
<path d="M623 1713 c-3 -8 -3 -17 1 -20 3 -4 6 1 6 11 0 14 3 15 21 5 16 -8
23 -8 29 1 5 8 11 7 23 -4 13 -13 16 -14 21 -1 6 16 4 17 -57 20 -26 1 -41 -3
-44 -12z"/>
<path d="M402 1695 c0 -16 2 -22 5 -12 2 9 2 23 0 30 -3 6 -5 -1 -5 -18z"/>
<path d="M635 1650 c3 -5 11 -10 16 -10 6 0 7 5 4 10 -3 6 -11 10 -16 10 -6 0
-7 -4 -4 -10z"/>
<path d="M717 1643 c-4 -3 -7 -14 -7 -24 0 -12 -14 -23 -47 -33 l-48 -16 43 4
c23 2 42 0 42 -6 0 -21 18 4 24 34 5 24 9 29 18 20 7 -7 21 -12 33 -11 14 0
16 2 5 6 -8 3 -19 12 -23 19 -8 15 -29 18 -40 7z"/>
<path d="M538 1633 c-13 -3 -18 -15 -18 -39 0 -40 17 -46 22 -7 2 22 11 30 43
39 l40 12 -35 0 c-19 0 -43 -2 -52 -5z"/>
<path d="M366 1609 c-9 -20 9 -94 30 -126 8 -13 22 -23 32 -23 9 0 28 -16 42
-35 14 -19 29 -35 33 -35 4 0 -3 15 -17 33 -21 27 -55 116 -69 182 -3 14 -5
12 -6 -8 0 -16 3 -36 8 -45 14 -28 21 -82 11 -82 -18 0 -42 50 -49 102 -5 35
-10 47 -15 37z"/>
<path d="M491 1584 c-1 -42 60 -184 79 -184 17 0 20 18 4 31 -22 18 -45 65
-65 134 l-18 60 0 -41z"/>
<path d="M570 1550 c-9 -6 -10 -10 -3 -10 6 0 15 5 18 10 8 12 4 12 -15 0z"/>
<path d="M720 1550 c-8 -5 -25 -10 -37 -10 -13 0 -23 -6 -23 -13 0 -23 12 -27
28 -11 8 9 23 13 33 11 14 -4 19 0 19 14 0 22 0 22 -20 9z"/>
<path d="M708 1498 l-28 -10 20 -39 c23 -44 35 -52 20 -13 -14 36 -12 47 5 40
10 -4 15 1 15 14 0 11 -1 20 -2 19 -2 0 -15 -5 -30 -11z"/>
<path d="M528 1393 c7 -3 16 -2 19 1 4 3 -2 6 -13 5 -11 0 -14 -3 -6 -6z"/>
<path d="M2390 987 c-19 -7 -35 -16 -34 -22 1 -15 106 -65 129 -62 38 4 26 87
-13 87 -13 0 -12 -3 6 -16 28 -20 30 -54 2 -54 -29 0 -102 39 -95 50 4 6 14
10 23 10 9 0 24 5 32 10 13 9 13 10 0 9 -8 0 -31 -5 -50 -12z"/>
<path d="M573 891 c-32 -20 -49 -53 -38 -71 8 -12 52 -13 59 -1 3 4 -6 6 -19
3 -20 -3 -25 0 -25 17 0 25 53 61 89 61 24 0 24 0 5 -22 l-19 -22 24 15 c14 9
27 21 29 27 6 20 -70 14 -105 -7z"/>
<path d="M2317 823 c-9 -15 36 -86 66 -103 20 -11 31 -12 44 -4 26 16 28 66 4
88 -22 20 -105 34 -114 19z m97 -24 c37 -29 32 -64 -9 -64 -22 0 -35 8 -52 34
-13 19 -23 38 -23 42 0 17 58 9 84 -12z"/>
<path d="M717 749 c-39 -45 -50 -81 -32 -105 18 -25 48 -13 67 26 19 37 25
120 9 120 -5 0 -25 -18 -44 -41z m34 -47 c-12 -43 -34 -68 -51 -57 -16 10 -3
54 28 95 31 41 40 26 23 -38z"/>
</g>
</svg>
